<svg xmlns="http://www.w3.org/2000/svg" version="1.1" style="display: block;" viewBox="0 0 2048 2048" width="1024" height="1024" preserveAspectRatio="none"><path transform="translate(0,0)" fill="rgb(232,172,187)" d="M 1019.47 181.215 L 1021.33 181.044 C 1029.31 180.393 1039.69 181.556 1045.14 187.562 C 1057.76 201.484 1069.74 225.642 1079.4 242.325 C 1095.1 269.161 1110.62 296.101 1125.96 323.142 L 1232.63 508.096 L 1598.03 1142.86 L 1708.53 1333.24 C 1743.1 1392.4 1777.9 1451.62 1811.93 1511.08 L 1931.55 1718.82 C 1950.82 1752.65 1970.47 1786.27 1988.88 1820.63 C 1996.15 1833.78 1998.29 1848.37 1987.23 1860.25 C 1975.44 1872.92 1949.21 1869.13 1932.38 1869.11 L 1868.58 1869.03 L 1667.14 1869.07 L 1030.25 1869.08 L 396.159 1869.05 L 188.087 1869.05 C 152.091 1869.06 116.113 1869.25 80.0955 1868.87 C 68.1078 1868.75 57.0181 1861.87 53.3023 1849.95 C 49.8926 1839.01 52.196 1831.31 57.647 1821.67 C 74.8853 1791.18 92.4008 1760.81 109.84 1730.42 L 234.514 1515.57 L 586.81 909.998 L 887.45 388.492 L 961.905 259.293 C 974.082 238.11 986.319 216.585 998.817 195.57 C 1003.56 187.591 1010.92 183.904 1019.47 181.215 z M 141.505 1805.5 C 313.887 1803.53 489.238 1805.26 661.934 1805.22 L 897.548 1805.24 C 938.851 1805.21 983.73 1804.24 1024.56 1805.24 L 1627.71 1805.24 L 1814.52 1805.24 C 1842.06 1805.26 1878.47 1806.39 1905.18 1805.43 C 1882.55 1770.27 1856.66 1722.01 1835.38 1685.11 L 1707.73 1465.45 L 1189.73 567.047 L 1066.57 352.943 C 1060.77 342.816 1029.96 285.916 1024.57 280.614 C 1006.15 317.493 975.792 366.386 954.489 403.62 C 910.796 480.77 866.712 557.699 822.239 634.402 L 459.256 1260.87 L 232.22 1651.04 C 211.474 1686.19 190.955 1721.48 170.665 1756.89 C 164.769 1766.99 147.983 1797.06 141.505 1805.5 z"/><path transform="translate(0,0)" fill="rgb(232,172,187)" d="M 697.341 1225.84 C 743.611 1220.01 785.849 1252.78 791.705 1299.05 C 797.56 1345.31 764.817 1387.57 718.554 1393.46 C 672.249 1399.35 629.943 1366.57 624.083 1320.26 C 618.222 1273.95 651.028 1231.67 697.341 1225.84 z"/><path transform="translate(0,0)" fill="rgb(232,172,187)" d="M 1017.71 1225.78 C 1063.96 1221.34 1105.11 1255.13 1109.75 1301.37 C 1114.39 1347.6 1080.78 1388.89 1034.56 1393.73 C 988.063 1398.6 946.467 1364.74 941.798 1318.22 C 937.129 1271.7 971.168 1230.25 1017.71 1225.78 z"/><path transform="translate(0,0)" fill="rgb(232,172,187)" d="M 1331.45 1225.62 C 1361.68 1222.76 1391.11 1236.36 1408.53 1261.23 C 1425.94 1286.1 1428.64 1318.41 1415.61 1345.83 C 1402.57 1373.25 1375.81 1391.55 1345.53 1393.75 C 1299.42 1397.11 1259.2 1362.72 1255.34 1316.65 C 1251.49 1270.58 1285.43 1229.99 1331.45 1225.62 z"/></svg>